<svg height="325" viewBox="0 0 325 325" width="325" xmlns="http://www.w3.org/2000/svg"><path d="m315.917758 218.301725-76.675211-33.621069v-73.106172c0-25.1780963-17.29027-55.5690013-24.724515-67.4658715-6.64905-10.6463554-13.723795-20.0451924-20.452734-27.1817164-7.431962-7.8826379-17.733083-16.9268961-31.565298-16.9268961s-24.135618 9.04525702-31.56644 16.9258972c-6.728939 7.136524-13.802542 16.5353611-20.455016 27.1817165-7.431963 11.8968702-24.7222319 42.2877752-24.7222319 67.4658713v73.106172l-76.67521156 33.621069c-5.56598308 2.440102-9.08110054 7.423183-9.08110054 12.870713v18.041573c0 7.951556 7.36462759 14.396901 16.4491519 14.396901h69.3071602v10.050063c-8.3883485 1.354392-14.745233 7.777763-14.745233 15.50958v20.045192c0 8.718645 8.07564 15.785252 18.0366612 15.785252h146.9045197c9.961021 0 18.03552-7.065608 18.03552-15.785252v-20.045192c0-7.731817-6.355744-14.155188-14.744092-15.50958v-10.050063h69.306019c9.085665 0 16.450293-6.445345 16.450293-14.396901v-18.041573c-.001141-5.44753-3.516259-10.427615-9.082242-12.869714zm-153.417758-71.805717c-15.175493 0-27.476121-10.766213-27.476121-24.04644 0-13.281226 12.300628-24.0464406 27.476121-24.0464406s27.477262 10.7652146 27.477262 24.0464406c0 13.279228-12.301769 24.04644-27.477262 24.04644z" fill="#e70f36"/></svg>