<svg height="346" viewBox="0 0 345 346" width="345" xmlns="http://www.w3.org/2000/svg"><g fill="none" fill-rule="evenodd" transform=""><path d="m172.672 345.039c-95.02 0-172.05-77.031-172.05-172.051 0-95.023 77.03-172.053 172.05-172.053 95.024 0 172.054 77.03 172.054 172.053 0 95.02-77.03 172.051-172.054 172.051z" fill="#283641"/><path d="m23.186 172.988c0-81.262 66.927-147.138 149.486-147.138 82.561 0 149.489 65.876 149.489 147.138 0 81.261-66.928 147.135-149.489 147.135-82.559 0-149.486-65.874-149.486-147.135z" fill="#38596a"/><path d="m195.193 224.818c-26.95-3.694-54.214-11.216-72.078-36.6-16.923-24.443-21.623-59.23 4.703-77.095 38.546-26.325 84.613-1.881 110.938 31.028 25.385 31.025 34.786 76.153 8.462 109.058-16.922 20.685-42.308 26.326-67.692 22.566-75.216-10.342-136.325-83.676-125.044-160.772 3.762-21.622 14.101-40.426 32.906-54.528 44.188-31.968 99.658-15.983 141.027 10.342-44.188-26.325-108.121-39.488-147.608 1.881-49.828 51.708-15.983 130.683 34.787 170.17 34.786 27.265 88.376 41.368 120.342 6.582 32.905-34.786 12.223-86.499-21.624-113.761-19.744-15.043-44.188-22.566-66.752-11.283 24.444-1.88 48.888 7.522 65.813 26.325 20.683 22.565 30.085 59.231 6.58 82.736-32.907 31.966-82.735 8.461-109.061-21.625-24.444-28.205-39.486-67.691-22.562-102.478 17.862-36.666 62.991-43.249 98.716-31.026 55.471 18.804 95.9 68.633 104.36 126.923 4.703 37.607-11.281 77.095-46.069 93.077-43.247 18.804-92.136 5.642-129.743-18.803 48.889 31.025 126.923 40.427 160.769-16.923 20.683-35.728 12.223-77.094-8.46-111.881-22.566-37.608-58.292-62.992-101.539-69.573-28.206-3.761-59.233 9.402-69.574 37.607-16.923 51.709 25.384 108.119 77.75 113.51 10.048-.397 17.312-2.852 20.653-5.457" fill="#1a222f"/><path d="m207.602 194.15c-8.511 14.049-31.052 15.965-50.343 4.279-19.291-11.689-28.028-32.554-19.516-46.603 8.511-14.052 31.05-15.967 50.343-4.279 19.291 11.687 28.029 32.553 19.516 46.603" fill="#283641"/><path d="m197.24 187.87c-5.987 9.883-21.84 11.23-35.407 3.011-13.569-8.222-19.714-22.896-13.727-32.778 5.986-9.882 21.84-11.23 35.406-3.008 13.57 8.221 19.715 22.895 13.728 32.775" fill="#283641"/><g fill="#fefdfd"><path d="m165.31 149.947c-7.618 0-13.815 3.018-17.004 8.28-5.91 9.753.212 24.312 13.648 32.452 5.693 3.45 12.113 5.35 18.082 5.35 7.619 0 13.815-3.021 17.003-8.28 5.91-9.756-.212-24.313-13.647-32.454-5.693-3.449-12.114-5.348-18.082-5.348zm14.726 46.549c-6.054 0-12.562-1.922-18.325-5.414-13.658-8.273-19.85-23.124-13.806-33.101 3.274-5.402 9.618-8.504 17.405-8.504 6.053 0 12.56 1.925 18.324 5.416 13.658 8.275 19.851 23.124 13.807 33.101-3.274 5.403-9.618 8.502-17.405 8.502z"/><path d="m193.356 37.368c1.517 0 1.517-2.35 0-2.35-1.515 0-1.515 2.35 0 2.35"/><path d="m253.058 67.922c1.516 0 1.516-2.35 0-2.35s-1.516 2.35 0 2.35"/><path d="m205.58 84.845c1.513 0 1.513-2.351 0-2.351-1.518 0-1.518 2.351 0 2.351"/><path d="m259.168 112.58c1.517 0 1.517-2.348 0-2.348-1.514 0-1.514 2.348 0 2.348"/><path d="m230.494 127.155c1.516 0 1.516-2.351 0-2.351-1.517 0-1.517 2.351 0 2.351"/><path d="m286.434 125.275c1.516 0 1.516-2.351 0-2.351s-1.516 2.351 0 2.351"/><path d="m277.501 143.608c1.517 0 1.517-2.352 0-2.352-1.515 0-1.515 2.352 0 2.352"/><path d="m241.306 100.359c1.515 0 1.515-2.351 0-2.351-1.516 0-1.516 2.351 0 2.351"/><path d="m220.622 113.521c1.514 0 1.514-2.351 0-2.351-1.515 0-1.515 2.351 0 2.351"/><path d="m169.382 82.965c1.516 0 1.516-2.35 0-2.35-1.515 0-1.515 2.35 0 2.35"/><path d="m175.022 61.342c1.518 0 1.518-2.35 0-2.35-1.515 0-1.515 2.35 0 2.35"/><path d="m112.031 64.161c1.515 0 1.515-2.35 0-2.35s-1.515 2.35 0 2.35"/><path d="m103.571 87.197c1.514 0 1.514-2.352 0-2.352-1.517 0-1.517 2.352 0 2.352"/><path d="m128.955 88.607c1.515 0 1.515-2.352 0-2.352s-1.515 2.352 0 2.352"/><path d="m114.851 106.001c1.517 0 1.517-2.353 0-2.353-1.516 0-1.516 2.353 0 2.353"/><path d="m77.714 115.403c1.517 0 1.517-2.352 0-2.352-1.514 0-1.514 2.352 0 2.352"/><path d="m50.45 135.615c1.514 0 1.514-2.35 0-2.35-1.517 0-1.517 2.35 0 2.35"/><path d="m91.347 138.438c1.516 0 1.516-2.353 0-2.353-1.514 0-1.514 2.353 0 2.353"/><path d="m48.57 172.752c1.515 0 1.515-2.351 0-2.351s-1.515 2.351 0 2.351"/><path d="m49.98 196.727c1.517 0 1.517-2.351 0-2.351-1.516 0-1.516 2.351 0 2.351"/><path d="m81.945 177.922c1.515 0 1.515-2.349 0-2.349-1.514 0-1.514 2.349 0 2.349"/><path d="m67.609 205.893v.941c0 1.515 2.349 1.515 2.349 0 0-.314 0-.627 0-.941 0-1.515-2.349-1.515-2.349 0"/><path d="m68.784 216.941c1.514 0 1.514-2.35 0-2.35-1.516 0-1.516 2.35 0 2.35"/><path d="m69.724 138.438c1.515 0 1.515-2.353 0-2.353-1.517 0-1.517 2.353 0 2.353"/><path d="m102.629 180.274c1.515 0 1.515-2.352 0-2.352-1.514 0-1.514 2.352 0 2.352"/><path d="m118.611 208.948c1.517 0 1.517-2.35 0-2.35-1.514 0-1.514 2.35 0 2.35"/><path d="m86.648 229.162c1.515 0 1.515-2.35 0-2.35-1.518 0-1.518 2.35 0 2.35"/><path d="m93.228 255.958c1.514 0 1.514-2.35 0-2.35-1.516 0-1.516 2.35 0 2.35"/><path d="m140.707 269.59c1.515 0 1.515-2.35 0-2.35-1.516 0-1.516 2.35 0 2.35"/><path d="m45.279 73.563c1.515 0 1.515-2.35 0-2.35-1.516 0-1.516 2.35 0 2.35"/><path d="m78.655 90.487c1.515 0 1.515-2.352 0-2.352-1.516 0-1.516 2.352 0 2.352"/><path d="m84.296 66.983c1.516 0 1.516-2.351 0-2.351s-1.516 2.351 0 2.351"/><path d="m109.68 37.368c1.517 0 1.517-2.35 0-2.35-1.515 0-1.515 2.35 0 2.35"/><path d="m138.828 55.7c1.513 0 1.513-2.35 0-2.35-1.517 0-1.517 2.35 0 2.35"/><path d="m220.152 158.18c1.516 0 1.516-2.352 0-2.352s-1.516 2.352 0 2.352"/><path d="m274.681 154.418c1.515 0 1.515-2.349 0-2.349-1.514 0-1.514 2.349 0 2.349"/><path d="m261.049 173.693c1.516 0 1.516-2.351 0-2.351s-1.516 2.351 0 2.351"/><path d="m249.296 182.624c1.516 0 1.516-2.35 0-2.35-1.514 0-1.514 2.35 0 2.35"/><path d="m305.707 189.205c1.517 0 1.517-2.349 0-2.349-1.515 0-1.515 2.349 0 2.349"/><path d="m273.743 206.598c1.513 0 1.513-2.351 0-2.351-1.517 0-1.517 2.351 0 2.351"/><path d="m271.392 218.352c1.515 0 1.515-2.352 0-2.352-1.517 0-1.517 2.352 0 2.352"/><path d="m248.357 220.701c1.515 0 1.515-2.349 0-2.349-1.516 0-1.516 2.349 0 2.349"/><path d="m234.724 222.581c1.517 0 1.517-2.35 0-2.35-1.516 0-1.516 2.35 0 2.35"/><path d="m233.314 259.248c1.518 0 1.518-2.351 0-2.351-1.515 0-1.515 2.351 0 2.351"/><path d="m148.698 256.897c1.516 0 1.516-2.35 0-2.35s-1.516 2.35 0 2.35"/><path d="m105.451 231.983c1.514 0 1.514-2.35 0-2.35-1.517 0-1.517 2.35 0 2.35"/><path d="m140.707 219.29c1.515 0 1.515-2.349 0-2.349-1.516 0-1.516 2.349 0 2.349"/><path d="m146.348 238.565c1.515 0 1.515-2.352 0-2.352-1.516 0-1.516 2.352 0 2.352"/><path d="m123.784 242.796c1.516 0 1.516-2.352 0-2.352s-1.516 2.352 0 2.352"/><path d="m115.322 278.99c1.516 0 1.516-2.347 0-2.347-1.514 0-1.514 2.347 0 2.347"/><path d="m140.707 269.121c1.515 0 1.515-2.351 0-2.351-1.516 0-1.516 2.351 0 2.351"/><path d="m153.87 296.385c1.514 0 1.514-2.351 0-2.351-1.517 0-1.517 2.351 0 2.351"/><path d="m190.536 317.539c1.515 0 1.515-2.35 0-2.35-1.514 0-1.514 2.35 0 2.35"/><path d="m201.347 291.214c1.517 0 1.517-2.349 0-2.349-1.515 0-1.515 2.349 0 2.349"/><path d="m174.553 268.18c1.516 0 1.516-2.351 0-2.351s-1.516 2.351 0 2.351"/><path d="m199.467 252.198c1.517 0 1.517-2.352 0-2.352-1.514 0-1.514 2.352 0 2.352"/><path d="m230.962 272.881c1.517 0 1.517-2.35 0-2.35-1.513 0-1.513 2.35 0 2.35"/><path d="m259.168 278.523c1.517 0 1.517-2.352 0-2.352-1.514 0-1.514 2.352 0 2.352"/><path d="m264.339 259.718c1.516 0 1.516-2.35 0-2.35-1.515 0-1.515 2.35 0 2.35"/><path d="m301.005 243.735c1.516 0 1.516-2.351 0-2.351-1.513 0-1.513 2.351 0 2.351"/><path d="m282.672 217.408c1.517 0 1.517-2.348 0-2.348-1.515 0-1.515 2.348 0 2.348"/><path d="m295.836 209.42c1.515 0 1.515-2.351 0-2.351-1.516 0-1.516 2.351 0 2.351"/><path d="m124.253 304.377c1.516 0 1.516-2.351 0-2.351s-1.516 2.351 0 2.351"/><path d="m106.391 245.615c1.514 0 1.514-2.35 0-2.35-1.516 0-1.516 2.35 0 2.35"/><path d="m71.134 283.694c1.515 0 1.515-2.352 0-2.352-1.517 0-1.517 2.352 0 2.352"/><path d="m63.613 249.376c1.514 0 1.514-2.349 0-2.349-1.517 0-1.517 2.349 0 2.349"/><path d="m60.792 238.094c1.516 0 1.516-2.349 0-2.349-1.515 0-1.515 2.349 0 2.349"/><path d="m37.288 226.812c1.515 0 1.515-2.35 0-2.35s-1.515 2.35 0 2.35"/><path d="m242.245 165.23c1.516 0 1.516-2.351 0-2.351-1.515 0-1.515 2.351 0 2.351"/><path d="m230.023 181.683c1.515 0 1.515-2.349 0-2.349-1.517 0-1.517 2.349 0 2.349"/><path d="m236.136 212.239c1.514 0 1.514-2.35 0-2.35-1.517 0-1.517 2.35 0 2.35"/><path d="m214.981 215.06c1.514 0 1.514-2.35 0-2.35-1.516 0-1.516 2.35 0 2.35"/><path d="m119.083 162.41c1.515 0 1.515-2.351 0-2.351-1.517 0-1.517 2.351 0 2.351"/><path d="m107.8 126.683c1.517 0 1.517-2.35 0-2.35-1.515 0-1.515 2.35 0 2.35"/><path d="m130.835 110.232c1.514 0 1.514-2.352 0-2.352-1.516 0-1.516 2.352 0 2.352"/><path d="m150.578 108.351c1.516 0 1.516-2.35 0-2.35s-1.516 2.35 0 2.35"/><path d="m212.629 66.983c1.518 0 1.518-2.351 0-2.351-1.513 0-1.513 2.351 0 2.351"/><path d="m200.877 93.778c1.516 0 1.516-2.351 0-2.351-1.514 0-1.514 2.351 0 2.351"/><path d="m190.3 95.423v.47c0 1.515 2.351 1.515 2.351 0 0-.157 0-.312 0-.47 0-1.517-2.351-1.517-2.351 0"/><path d="m212.629 108.819c1.518 0 1.518-2.349 0-2.349-1.513 0-1.513 2.349 0 2.349"/><path d="m229.083 85.316c1.516 0 1.516-2.351 0-2.351-1.515 0-1.515 2.351 0 2.351"/><path d="m251.647 109.761c1.517 0 1.517-2.352 0-2.352-1.516 0-1.516 2.352 0 2.352"/><path d="m247.885 135.615c1.518 0 1.518-2.35 0-2.35-1.514 0-1.514 2.35 0 2.35"/><path d="m253.528 168.991c1.515 0 1.515-2.351 0-2.351-1.516 0-1.516 2.351 0 2.351"/><path d="m268.101 184.034c1.516 0 1.516-2.351 0-2.351-1.517 0-1.517 2.351 0 2.351"/><path d="m228.143 229.633c1.516 0 1.516-2.351 0-2.351s-1.516 2.351 0 2.351"/><path d="m222.502 242.796c1.515 0 1.515-2.352 0-2.352-1.517 0-1.517 2.352 0 2.352"/><path d="m215.451 254.077c1.515 0 1.515-2.351 0-2.351-1.516 0-1.516 2.351 0 2.351"/><path d="m178.315 255.958c1.515 0 1.515-2.35 0-2.35-1.517 0-1.517 2.35 0 2.35"/><path d="m169.382 251.726c1.516 0 1.516-2.35 0-2.35-1.515 0-1.515 2.35 0 2.35"/><path d="m57.501 159.119c1.516 0 1.516-2.349 0-2.349s-1.516 2.349 0 2.349"/><path d="m77.01 186.15v.47c0 1.515 2.349 1.515 2.349 0 0-.158 0-.313 0-.47 0-1.515-2.349-1.515-2.349 0"/><path d="m101.22 213.651c1.514 0 1.514-2.351 0-2.351-1.517 0-1.517 2.351 0 2.351"/><path d="m80.536 150.187c1.514 0 1.514-2.349 0-2.349-1.518 0-1.518 2.349 0 2.349"/><path d="m74.424 160.059c1.517 0 1.517-2.35 0-2.35-1.514 0-1.514 2.35 0 2.35"/><path d="m71.605 164.761c1.515 0 1.515-2.351 0-2.351-1.517 0-1.517 2.351 0 2.351"/><path d="m102.159 153.478c1.516 0 1.516-2.35 0-2.35-1.515 0-1.515 2.35 0 2.35"/><path d="m76.305 100.83c1.515 0 1.515-2.352 0-2.352-1.516 0-1.516 2.352 0 2.352"/><path d="m98.399 89.076c1.516 0 1.516-2.349 0-2.349s-1.516 2.349 0 2.349"/><path d="m142.586 66.983c1.516 0 1.516-2.351 0-2.351-1.515 0-1.515 2.351 0 2.351"/><path d="m35.407 159.59c1.515 0 1.515-2.351 0-2.351s-1.515 2.351 0 2.351"/><path d="m154.808 90.487c1.516 0 1.516-2.352 0-2.352-1.514 0-1.514 2.352 0 2.352"/><path d="m159.979 60.871c1.517 0 1.517-2.35 0-2.35-1.515 0-1.515 2.35 0 2.35"/><path d="m292.076 187.324c1.514 0 1.514-2.348 0-2.348-1.517 0-1.517 2.348 0 2.348"/><path d="m173.142 283.694c1.517 0 1.517-2.352 0-2.352-1.515 0-1.515 2.352 0 2.352"/><path d="m276.562 108.819c1.515 0 1.515-2.349 0-2.349-1.516 0-1.516 2.349 0 2.349"/><path d="m264.81 90.016c1.517 0 1.517-2.35 0-2.35-1.516 0-1.516 2.35 0 2.35"/><path d="m229.553 38.307c1.517 0 1.517-2.35 0-2.35-1.515 0-1.515 2.35 0 2.35"/><path d="m311.347 162.879c1.517 0 1.517-2.348 0-2.348-1.514 0-1.514 2.348 0 2.348"/><path d="m168.912 316.13c1.516 0 1.516-2.35 0-2.35s-1.516 2.35 0 2.35"/><path d="m104.039 294.034c1.517 0 1.517-2.349 0-2.349-1.515 0-1.515 2.349 0 2.349"/><path d="m239.425 308.607c1.514 0 1.514-2.351 0-2.351-1.516 0-1.516 2.351 0 2.351"/><path d="m231.904 285.574c1.514 0 1.514-2.353 0-2.353-1.518 0-1.518 2.353 0 2.353"/></g></g></svg>