<svg height="232" viewBox="0 0 231 232" width="231" xmlns="http://www.w3.org/2000/svg"><g fill="none" fill-rule="evenodd" transform=""><path d="m115.498657 232c-63.7877498 0-115.498657-51.935438-115.498657-115.999326 0-64.0659101 51.7109072-116.000674 115.498657-116.000674 63.790436 0 115.501343 51.9347639 115.501343 116.000674 0 64.063888-51.710907 115.999326-115.501343 115.999326z" fill="#c71b38"/><path d="m16 115.001009c0-54.6766979 44.9948223-99.001009 100.498992-99.001009 55.505513 0 100.501008 44.3243111 100.501008 99.001009 0 54.676026-44.995495 98.998991-100.501008 98.998991-55.5041697 0-100.498992-44.322965-100.498992-98.998991z" fill="#81221c"/><path d="m131.665807 149.876033c-18.148822-2.485627-36.5090995-7.547048-48.5391757-24.627493-11.3963826-16.447264-14.5614833-39.8548218 3.167121-51.8758649 25.9578657-17.7136278 56.9805667-1.2656917 74.7084967 20.8781934 17.094911 20.8761745 23.425786 51.2420095 5.698528 73.3832025-11.395709 13.918572-28.491293 17.714301-45.58553 15.184263-50.6523854-6.958949-91.8047548-56.304103-84.2078398-108.1806401 2.5334274-14.5490621 9.4959754-27.2019417 22.1597452-36.6909285 29.7573335-21.5107029 67.1122556-10.7546786 94.9712026 6.9589492-29.757334-17.7136278-72.8114575-26.5707781-99.403017 1.2656917-33.5554543 34.7934003-10.7633625 87.9342837 23.4264588 114.5043887 23.4257852 18.346137 59.5146672 27.835797 81.0413922 4.428912 22.159072-23.406886 8.231282-58.20365-14.562157-76.5477689-13.296116-10.1221691-29.757333-15.184263-44.9525101-7.5921315 16.4612171-1.2650188 32.9224341 5.061421 44.3201641 17.7136278 13.928463 15.1835896 20.260011 39.8554946 4.43114 55.6715936-22.160418 21.509357-55.7158724 5.693258-73.4444767-14.551081-16.4612171-18.978646-26.590886-45.5480785-15.19383-68.9556366 12.0287294-24.6719041 42.4197567-29.1014886 66.4778887-20.8768477 37.355595 12.6528796 64.581522 46.181934 70.278703 85.4042463 3.167121 25.305086-7.596915 51.875864-31.024047 62.62987-29.12364 12.652879-62.046748 3.796402-87.3722672-12.652207 32.9231082 20.876175 85.4732062 27.202615 108.2659722-11.387188 13.928463-24.04074 8.231282-51.875191-5.697182-75.2827496-15.196523-25.3057593-39.255329-42.3862048-68.378969-46.8144435-18.9946443-2.5307105-39.8890226 6.3264398-46.8529175 25.3050864-11.3963826 34.7940737 17.0942373 72.7513667 52.3588455 76.3788747 6.766582-.267134 11.658346-1.91906 13.908261-3.671919" fill="#ca6750"/><path d="m138.823601 129.888912c-5.683116 9.552084-20.734591 10.854796-33.615918 2.909344-12.8813281-7.947492-18.7153523-22.133857-13.0315691-31.685942 5.6831155-9.5541236 20.7332551-10.8561552 33.6159181-2.9093432 12.881328 7.9461322 18.71602 22.1331772 13.031569 31.6859412" fill="#b63b1e"/><path d="m132.463843 125.411409c-4.012252 6.5816-14.636309 7.478637-23.728379 2.00518-9.0934102-5.475455-13.2115476-15.24763-9.1992956-21.828565 4.0115816-6.5809349 14.6363096-7.4786378 23.7277086-2.003183 9.094081 5.474789 13.212218 15.246965 9.199966 21.826568" fill="#b41b2e"/><g fill="#fefdfd"><path d="m111.106724 100.319871c-5.062801 0-9.181227 2.053978-11.3005857 5.635168-3.9276912 6.637658.1408918 16.546163 9.0702417 22.086051 3.783477 2.347987 8.050106 3.641081 12.017008 3.641081 5.063465 0 9.181227-2.05602 11.299921-5.635169 3.927691-6.639699-.140892-16.546842-9.069578-22.087411-3.783476-2.347307-8.05077-3.63972-12.017007-3.63972zm9.786664 31.680129c-4.023392 0-8.348504-1.308067-12.178502-3.684638-9.0768874-5.630405-13.1919914-15.737638-9.1752459-22.527744 2.1758479-3.676471 6.3919689-5.787618 11.5670839-5.787618 4.022727 0 8.347175 1.310109 12.177837 3.685999 9.076887 5.631766 13.192656 15.737638 9.17591 22.527744-2.175847 3.677152-6.391968 5.786257-11.567083 5.786257z"/><path d="m129.99934 25c1.334213 0 1.334213-2 0-2-1.332453 0-1.332453 2 0 2"/><path d="m170 45c1.333333 0 1.333333-2 0-2s-1.333333 2 0 2"/><path d="m138.00165 57c1.331133 0 1.331133-2 0-2-1.335533 0-1.335533 2 0 2"/><path d="m174.99901 75c1.334653 0 1.334653-2 0-2-1.332013 0-1.332013 2 0 2"/><path d="m155.00033 85c1.332893 0 1.332893-2 0-2-1.333773 0-1.333773 2 0 2"/><path d="m193 84c1.333333 0 1.333333-2 0-2s-1.333333 2 0 2"/><path d="m186.99934 96c1.334213 0 1.334213-2 0-2-1.332453 0-1.332453 2 0 2"/><path d="m163.00033 67c1.332893 0 1.332893-2 0-2-1.333773 0-1.333773 2 0 2"/><path d="m149.00033 76c1.332893 0 1.332893-2 0-2-1.333773 0-1.333773 2 0 2"/><path d="m113.99967 55c1.333773 0 1.333773-2 0-2-1.332893 0-1.332893 2 0 2"/><path d="m117.999011 41c1.334652 0 1.334652-2 0-2-1.332015 0-1.332015 2 0 2"/><path d="m76 43c1.3333333 0 1.3333333-2 0-2s-1.3333333 2 0 2"/><path d="m70.0009898 58c1.3320136 0 1.3320136-2 0-2-1.3346531 0-1.3346531 2 0 2"/><path d="m87 59c1.3333333 0 1.3333333-2 0-2s-1.3333333 2 0 2"/><path d="m76.9996703 71c1.3337729 0 1.3337729-2 0-2-1.3328937 0-1.3328937 2 0 2"/><path d="m51.9990102 77c1.3346531 0 1.3346531-2 0-2-1.3320136 0-1.3320136 2 0 2"/><path d="m34.0009898 91c1.3320136 0 1.3320136-2 0-2-1.3346531 0-1.3346531 2 0 2"/><path d="m61.9993399 93c1.3342135 0 1.3342135-2 0-2-1.3324532 0-1.3324532 2 0 2"/><path d="m33 116c1.3333333 0 1.3333333-2 0-2s-1.3333333 2 0 2"/><path d="m33.9996703 132c1.3337729 0 1.3337729-2 0-2-1.3328937 0-1.3328937 2 0 2"/><path d="m54.9996699 119c1.3337735 0 1.3337735-2 0-2-1.3328932 0-1.3328932 2 0 2"/><path d="m45 137.707173v.585654c0 .942897 2 .942897 2 0 0-.195425 0-.390229 0-.585654 0-.942897-2-.942897-2 0"/><path d="m46.0006601 146c1.3324532 0 1.3324532-2 0-2-1.3342135 0-1.3342135 2 0 2"/><path d="m47.0006596 93c1.3324539 0 1.3324539-2 0-2-1.3342128 0-1.3342128 2 0 2"/><path d="m68.9996699 121c1.3337735 0 1.3337735-2 0-2-1.3328932 0-1.3328932 2 0 2"/><path d="m79.9990102 140c1.3346531 0 1.3346531-2 0-2-1.3320136 0-1.3320136 2 0 2"/><path d="m59.0009891 154c1.3320145 0 1.3320145-2 0-2-1.3346521 0-1.3346521 2 0 2"/><path d="m63.0006601 172c1.3324532 0 1.3324532-2 0-2-1.3342135 0-1.3342135 2 0 2"/><path d="m95.0003299 181c1.3328935 0 1.3328935-2 0-2-1.3337732 0-1.3337732 2 0 2"/><path d="m31.0003299 49c1.3328935 0 1.3328935-2 0-2-1.3337732 0-1.3337732 2 0 2"/><path d="m53.0003299 60c1.3328935 0 1.3328935-2 0-2-1.3337732 0-1.3337732 2 0 2"/><path d="m57 45c1.3333333 0 1.3333333-2 0-2s-1.3333333 2 0 2"/><path d="m73.9993404 25c1.3342128 0 1.3342128-2 0-2-1.3324539 0-1.3324539 2 0 2"/><path d="m94.0013201 37c1.3315732 0 1.3315732-2 0-2-1.3350935 0-1.3350935 2 0 2"/><path d="m148 106c1.333333 0 1.333333-2 0-2s-1.333333 2 0 2"/><path d="m184.99967 103c1.333773 0 1.333773-2 0-2-1.332893 0-1.332893 2 0 2"/><path d="m176 116c1.333333 0 1.333333-2 0-2s-1.333333 2 0 2"/><path d="m167.99934 122c1.334213 0 1.334213-2 0-2-1.332453 0-1.332453 2 0 2"/><path d="m205.99934 127c1.334213 0 1.334213-2 0-2-1.332453 0-1.332453 2 0 2"/><path d="m184.00132 139c1.331573 0 1.331573-2 0-2-1.335093 0-1.335093 2 0 2"/><path d="m183.00066 146c1.332453 0 1.332453-2 0-2-1.334213 0-1.334213 2 0 2"/><path d="m167.00033 148c1.332893 0 1.332893-2 0-2-1.333773 0-1.333773 2 0 2"/><path d="m157.99967 149c1.333773 0 1.333773-2 0-2-1.332893 0-1.332893 2 0 2"/><path d="m156.999011 174c1.334652 0 1.334652-2 0-2-1.332015 0-1.332015 2 0 2"/><path d="m100 172c1.333333 0 1.333333-2 0-2-1.3333333 0-1.3333333 2 0 2"/><path d="m71.0009898 156c1.3320136 0 1.3320136-2 0-2-1.3346531 0-1.3346531 2 0 2"/><path d="m95.0003299 147c1.3328935 0 1.3328935-2 0-2-1.3337732 0-1.3337732 2 0 2"/><path d="m99.0003299 160c1.3328931 0 1.3328931-2 0-2-1.3337732 0-1.3337732 2 0 2"/><path d="m83 163c1.3333333 0 1.3333333-2 0-2s-1.3333333 2 0 2"/><path d="m77.9993399 187c1.3342135 0 1.3342135-2 0-2-1.3324532 0-1.3324532 2 0 2"/><path d="m95.0003299 181c1.3328935 0 1.3328935-2 0-2-1.3337732 0-1.3337732 2 0 2"/><path d="m104.00099 199c1.332013 0 1.332013-2 0-2-1.334653 0-1.334653 2 0 2"/><path d="m127.99967 213c1.333773 0 1.333773-2 0-2-1.332893 0-1.332893 2 0 2"/><path d="m135.99934 196c1.334213 0 1.334213-2 0-2-1.332453 0-1.332453 2 0 2"/><path d="m118 180c1.333333 0 1.333333-2 0-2s-1.333333 2 0 2"/><path d="m133.99901 169c1.334653 0 1.334653-2 0-2-1.332013 0-1.332013 2 0 2"/><path d="m155.99868 183c1.335093 0 1.335093-2 0-2-1.331573 0-1.331573 2 0 2"/><path d="m174.99901 187c1.334653 0 1.334653-2 0-2-1.332013 0-1.332013 2 0 2"/><path d="m177.99967 174c1.333773 0 1.333773-2 0-2-1.332893 0-1.332893 2 0 2"/><path d="m202.99901 164c1.334653 0 1.334653-2 0-2-1.332013 0-1.332013 2 0 2"/><path d="m189.99934 146c1.334213 0 1.334213-2 0-2-1.332453 0-1.332453 2 0 2"/><path d="m199.00033 140c1.332893 0 1.332893-2 0-2-1.333773 0-1.333773 2 0 2"/><path d="m84 204c1.3333333 0 1.3333333-2 0-2s-1.3333333 2 0 2"/><path d="m72.0006601 165c1.3324532 0 1.3324532-2 0-2-1.3342135 0-1.3342135 2 0 2"/><path d="m48.0006596 190c1.3324539 0 1.3324539-2 0-2-1.3342128 0-1.3342128 2 0 2"/><path d="m43.0009898 167c1.3320136 0 1.3320136-2 0-2-1.3346531 0-1.3346531 2 0 2"/><path d="m40.9996701 160c1.3337732 0 1.3337732-2 0-2-1.3328935 0-1.3328935 2 0 2"/><path d="m25 152c1.3333333 0 1.3333333-2 0-2s-1.3333333 2 0 2"/><path d="m162.99967 111c1.333773 0 1.333773-2 0-2-1.332893 0-1.332893 2 0 2"/><path d="m155.00066 122c1.332453 0 1.332453-2 0-2-1.334213 0-1.334213 2 0 2"/><path d="m159.00099 142c1.332013 0 1.332013-2 0-2-1.334653 0-1.334653 2 0 2"/><path d="m145.00066 144c1.332453 0 1.332453-2 0-2-1.334213 0-1.334213 2 0 2"/><path d="m80.0006596 109c1.3324539 0 1.3324539-2 0-2-1.3342128 0-1.3342128 2 0 2"/><path d="m72.9993404 85c1.3342128 0 1.3342128-2 0-2-1.3324539 0-1.3324539 2 0 2"/><path d="m88.0006601 74c1.3324532 0 1.3324532-2 0-2-1.3342135 0-1.3342135 2 0 2"/><path d="m101 72c1.333333 0 1.333333-2 0-2-1.3333333 0-1.3333333 2 0 2"/><path d="m142.99835 45c1.335533 0 1.335533-2 0-2-1.331133 0-1.331133 2 0 2"/><path d="m134.99934 63c1.334213 0 1.334213-2 0-2-1.332453 0-1.332453 2 0 2"/><path d="m128 62.8292638v.3425656c0 1.1042275 2 1.1042275 2 0 0-.1144314 0-.2274052 0-.3425656 0-1.1056851-2-1.1056851-2 0"/><path d="m142.99835 73c1.335533 0 1.335533-2 0-2-1.331133 0-1.331133 2 0 2"/><path d="m153.99967 57c1.333773 0 1.333773-2 0-2-1.332893 0-1.332893 2 0 2"/><path d="m168.99967 73c1.333773 0 1.333773-2 0-2-1.332893 0-1.332893 2 0 2"/><path d="m166.998681 91c1.335092 0 1.335092-2 0-2-1.331575 0-1.331575 2 0 2"/><path d="m171.00033 113c1.332893 0 1.332893-2 0-2-1.333773 0-1.333773 2 0 2"/><path d="m181.00033 123c1.332893 0 1.332893-2 0-2-1.333773 0-1.333773 2 0 2"/><path d="m154 154c1.333333 0 1.333333-2 0-2s-1.333333 2 0 2"/><path d="m150.00066 163c1.332453 0 1.332453-2 0-2-1.334213 0-1.334213 2 0 2"/><path d="m145.00033 171c1.332893 0 1.332893-2 0-2-1.333773 0-1.333773 2 0 2"/><path d="m120.00066 172c1.332453 0 1.332453-2 0-2-1.334213 0-1.334213 2 0 2"/><path d="m113.99967 169c1.333773 0 1.333773-2 0-2-1.332893 0-1.332893 2 0 2"/><path d="m39 107c1.3333333 0 1.3333333-2 0-2s-1.3333333 2 0 2"/><path d="m52 124.828624v.342752c0 1.104832 2 1.104832 2 0 0-.115223 0-.228258 0-.342752 0-1.104832-2-1.104832-2 0"/><path d="m68.0009898 143c1.3320136 0 1.3320136-2 0-2-1.3346531 0-1.3346531 2 0 2"/><path d="m54.0013193 101c1.3315743 0 1.3315743-2 0-2-1.3350924 0-1.3350924 2 0 2"/><path d="m49.9990102 107c1.3346531 0 1.3346531-2 0-2-1.3320136 0-1.3320136 2 0 2"/><path d="m48.0006596 110c1.3324539 0 1.3324539-2 0-2-1.3342128 0-1.3342128 2 0 2"/><path d="m68.9996701 103c1.3337732 0 1.3337732-2 0-2-1.3328935 0-1.3328935 2 0 2"/><path d="m52.0003299 67c1.3328935 0 1.3328935-2 0-2-1.3337732 0-1.3337732 2 0 2"/><path d="m66 59c1.3333333 0 1.3333333-2 0-2s-1.3333333 2 0 2"/><path d="m95.9996701 45c1.3337732 0 1.3337732-2 0-2-1.3328935 0-1.3328935 2 0 2"/><path d="m24 107c1.3333333 0 1.3333333-2 0-2s-1.3333333 2 0 2"/><path d="m103.99934 60c1.334213 0 1.334213-2 0-2-1.332453 0-1.332453 2 0 2"/><path d="m107.99934 40c1.334213 0 1.334213-2 0-2-1.332453 0-1.332453 2 0 2"/><path d="m197.00099 126c1.332013 0 1.332013-2 0-2-1.334653 0-1.334653 2 0 2"/><path d="m116.99934 190c1.334213 0 1.334213-2 0-2-1.332453 0-1.332453 2 0 2"/><path d="m186.00033 73c1.332893 0 1.332893-2 0-2-1.333773 0-1.333773 2 0 2"/><path d="m177.99967 60c1.333773 0 1.333773-2 0-2-1.332893 0-1.332893 2 0 2"/><path d="m154.99934 25c1.334213 0 1.334213-2 0-2-1.332453 0-1.332453 2 0 2"/><path d="m209.99901 109c1.334653 0 1.334653-2 0-2-1.332013 0-1.332013 2 0 2"/><path d="m114 212c1.333333 0 1.333333-2 0-2s-1.333333 2 0 2"/><path d="m69.9993404 197c1.3342128 0 1.3342128-2 0-2-1.3324539 0-1.3324539 2 0 2"/><path d="m161.00066 207c1.332453 0 1.332453-2 0-2-1.334213 0-1.334213 2 0 2"/><path d="m156.001319 192c1.331575 0 1.331575-2 0-2-1.335092 0-1.335092 2 0 2"/></g></g></svg>