<svg height="249" viewBox="0 0 248 249" width="248" xmlns="http://www.w3.org/2000/svg"><g fill="none" fill-rule="evenodd" transform=""><path d="m123.998559 249c-68.4820872 0-123.998559-55.741052-123.998559-124.499276 0-68.7603955 55.5164718-124.500724 123.998559-124.500724 68.484969 0 124.001441 55.7403285 124.001441 124.500724 0 68.758224-55.516472 124.499276-124.001441 124.499276z" fill="#f5a623"/><path d="m17 124.501086c0-58.8188725 48.3526449-106.501086 107.998916-106.501086 59.647717 0 108.001084 47.6822135 108.001084 106.501086 0 58.818148-48.353367 106.498914-108.001084 106.498914-59.6462711 0-107.998916-47.680766-107.998916-106.498914z" fill="#56531e"/><path d="m140.796178 160.923159c-19.501529-2.667162-39.230275-8.098237-52.1570027-26.426131-12.2458025-17.648467-15.6468113-42.7655663 3.4031796-55.6645508 27.8926141-19.0073197 61.2275651-1.3581298 80.2768321 22.4030058 18.369066 22.400839 25.171807 54.984403 6.123263 78.74265-12.245079 14.935096-30.614868 19.008041-48.98321 16.293226-54.4277179-7.467187-98.6473446-60.416201-90.4841999-116.081474 2.7222542-15.611634 10.2037499-29.1886003 23.8114031-39.3706031 31.9752715-23.0817092 72.1144108-11.5401325 102.0498008 7.4671871-31.975271-19.0073196-78.2383976-28.5113405-106.8119367 1.3581299-36.056482 37.3344913-11.5656007 94.3564501 25.1725303 122.8670691 25.1718064 19.686023 63.9505434 29.868748 87.0817444 4.752371 23.81068-25.116377 8.844794-62.454478-15.647535-82.1383357-14.287131-10.8614287-31.975271-16.2932261-48.303008-8.1466131 17.68814-1.3574078 35.37628 5.4310754 47.62353 19.0073198 14.966609 16.292504 21.770074 42.766289 4.761412 59.737497-23.812127 23.080265-59.8686085 6.109057-78.9185994-15.613801-17.6881401-20.364727-28.5728155-48.874623-16.3262894-73.9917224 12.9252806-26.4737847 45.5814778-31.2268782 71.4327618-22.4015613 40.139864 13.5769664 69.395052 49.5547717 75.516868 91.6416347 3.403179 27.153211-8.163145 55.664551-33.336399 67.203962-31.294346 13.576966-66.67135 4.073667-93.8844854-13.576245 35.3770034 22.40084 91.8438804 29.189323 116.3354854-12.218836 14.966609-25.796525 8.844793-55.663829-6.121816-80.780928-16.329184-27.1539328-42.181192-45.4818265-73.475538-50.2334759-20.4103948-2.7155377-42.8621181 6.7884831-50.345061 27.1532106-12.2458024 37.3352133 18.3683419 78.0646683 56.261369 81.9571073 7.270922-.286644 12.52729-2.059216 14.944901-3.940093" fill="#9ca05d"/><path d="m149.652903 139.348173c-6.12885 10.18889-22.360833 11.578449-36.252461 3.1033-13.8916279-8.477325-20.1832226-23.609448-14.0536525-33.798338 6.1288495-10.1910653 22.3593925-11.579899 36.2524605-3.103299 13.891628 8.475874 20.183943 23.608722 14.053653 33.798337" fill="#7e7631"/><path d="m142.33583 134.870577c-4.346606 7.21853-15.856001 8.202377-25.705744 2.199231-9.851194-6.005338-14.31251-16.723208-9.965904-23.941008 4.345881-7.217799 15.856002-8.202376 25.705019-2.197039 9.85192 6.004608 14.313236 16.722478 9.966629 23.938816" fill="#f5a623"/><g fill="#fefdfd"><path d="m119.198951 107.339863c-5.484701 0-9.94633 2.182351-12.242301 5.987366-4.254999 7.052511.152633 17.580298 9.826095 23.466429 4.098766 2.494736 8.720948 3.868649 13.018425 3.868649 5.48542 0 9.94633-2.184521 12.241581-5.987367 4.254999-7.05468-.152633-17.581021-9.825375-23.467875-4.098767-2.494013-8.721668-3.867202-13.018425-3.867202zm10.602219 33.660137c-4.358674 0-9.044213-1.389821-13.193376-3.914928-9.833296-5.982305-14.291325-16.72124-9.939851-23.935728 2.357169-3.906251 6.924633-6.149344 12.531008-6.149344 4.357954 0 9.042773 1.39199 13.192656 3.916374 9.833295 5.983751 14.292045 16.721241 9.94057 23.935728-2.357168 3.906974-6.924632 6.147898-12.531007 6.147898z"/><path d="m139.99934 26c1.334213 0 1.334213-2 0-2-1.332453 0-1.332453 2 0 2"/><path d="m183 48c1.333333 0 1.333333-2 0-2s-1.333333 2 0 2"/><path d="m149.00165 61c1.331133 0 1.331133-2 0-2-1.335533 0-1.335533 2 0 2"/><path d="m186.99901 81c1.334653 0 1.334653-2 0-2-1.332013 0-1.332013 2 0 2"/><path d="m167.00033 91c1.332893 0 1.332893-2 0-2-1.333773 0-1.333773 2 0 2"/><path d="m207 90c1.333333 0 1.333333-2 0-2s-1.333333 2 0 2"/><path d="m199.99934 103c1.334213 0 1.334213-2 0-2-1.332453 0-1.332453 2 0 2"/><path d="m174.00033 72c1.332893 0 1.332893-2 0-2-1.333773 0-1.333773 2 0 2"/><path d="m159.00033 81c1.332893 0 1.332893-2 0-2-1.333773 0-1.333773 2 0 2"/><path d="m121.99967 59c1.333773 0 1.333773-2 0-2-1.332893 0-1.332893 2 0 2"/><path d="m126.999011 44c1.334652 0 1.334652-2 0-2-1.332015 0-1.332015 2 0 2"/><path d="m81 46c1.3333333 0 1.3333333-2 0-2s-1.3333333 2 0 2"/><path d="m75.0009898 62c1.3320136 0 1.3320136-2 0-2-1.3346531 0-1.3346531 2 0 2"/><path d="m93 63c1.3333333 0 1.3333333-2 0-2s-1.3333333 2 0 2"/><path d="m82.9996703 76c1.3337729 0 1.3337729-2 0-2-1.3328937 0-1.3328937 2 0 2"/><path d="m55.9990102 83c1.3346531 0 1.3346531-2 0-2-1.3320136 0-1.3320136 2 0 2"/><path d="m37.0009898 97c1.3320136 0 1.3320136-2 0-2-1.3346531 0-1.3346531 2 0 2"/><path d="m65.9993399 99c1.3342135 0 1.3342135-2 0-2-1.3324532 0-1.3324532 2 0 2"/><path d="m35 124c1.3333333 0 1.3333333-2 0-2s-1.3333333 2 0 2"/><path d="m35.9996703 141c1.3337729 0 1.3337729-2 0-2-1.3328937 0-1.3328937 2 0 2"/><path d="m58.9996699 128c1.3337735 0 1.3337735-2 0-2-1.3328932 0-1.3328932 2 0 2"/><path d="m49 147.707173v.585654c0 .942897 2 .942897 2 0 0-.195425 0-.390229 0-.585654 0-.942897-2-.942897-2 0"/><path d="m50.0006601 156c1.3324532 0 1.3324532-2 0-2-1.3342135 0-1.3342135 2 0 2"/><path d="m51.0006596 99c1.3324539 0 1.3324539-2 0-2-1.3342128 0-1.3342128 2 0 2"/><path d="m73.9996699 130c1.3337735 0 1.3337735-2 0-2-1.3328932 0-1.3328932 2 0 2"/><path d="m85.9990102 150c1.3346531 0 1.3346531-2 0-2-1.3320136 0-1.3320136 2 0 2"/><path d="m63.0009891 165c1.3320145 0 1.3320145-2 0-2-1.3346521 0-1.3346521 2 0 2"/><path d="m67.0006601 184c1.3324532 0 1.3324532-2 0-2-1.3342135 0-1.3342135 2 0 2"/><path d="m102.00033 194c1.332893 0 1.332893-2 0-2-1.333773 0-1.333773 2 0 2"/><path d="m33.0003299 52c1.3328935 0 1.3328935-2 0-2-1.3337732 0-1.3337732 2 0 2"/><path d="m57.0003299 65c1.3328935 0 1.3328935-2 0-2-1.3337732 0-1.3337732 2 0 2"/><path d="m61 48c1.3333333 0 1.3333333-2 0-2s-1.3333333 2 0 2"/><path d="m78.9993404 26c1.3342128 0 1.3342128-2 0-2-1.3324539 0-1.3324539 2 0 2"/><path d="m100.00132 40c1.331573 0 1.331573-2 0-2-1.3350934 0-1.3350934 2 0 2"/><path d="m159 114c1.333333 0 1.333333-2 0-2s-1.333333 2 0 2"/><path d="m197.99967 111c1.333773 0 1.333773-2 0-2-1.332893 0-1.332893 2 0 2"/><path d="m189 125c1.333333 0 1.333333-2 0-2s-1.333333 2 0 2"/><path d="m179.99934 131c1.334213 0 1.334213-2 0-2-1.332453 0-1.332453 2 0 2"/><path d="m220.99934 136c1.334213 0 1.334213-2 0-2-1.332453 0-1.332453 2 0 2"/><path d="m198.00132 149c1.331573 0 1.331573-2 0-2-1.335093 0-1.335093 2 0 2"/><path d="m196.00066 157c1.332453 0 1.332453-2 0-2-1.334213 0-1.334213 2 0 2"/><path d="m179.00033 159c1.332893 0 1.332893-2 0-2-1.333773 0-1.333773 2 0 2"/><path d="m169.99967 160c1.333773 0 1.333773-2 0-2-1.332893 0-1.332893 2 0 2"/><path d="m168.999011 187c1.334652 0 1.334652-2 0-2-1.332015 0-1.332015 2 0 2"/><path d="m108 185c1.333333 0 1.333333-2 0-2s-1.333333 2 0 2"/><path d="m76.0009898 167c1.3320136 0 1.3320136-2 0-2-1.3346531 0-1.3346531 2 0 2"/><path d="m102.00033 158c1.332893 0 1.332893-2 0-2-1.333773 0-1.333773 2 0 2"/><path d="m106.00033 172c1.332893 0 1.332893-2 0-2-1.333773 0-1.333773 2 0 2"/><path d="m90 175c1.3333333 0 1.3333333-2 0-2s-1.3333333 2 0 2"/><path d="m82.9993399 201c1.3342135 0 1.3342135-2 0-2-1.3324532 0-1.3324532 2 0 2"/><path d="m102.00033 194c1.332893 0 1.332893-2 0-2-1.333773 0-1.333773 2 0 2"/><path d="m111.00099 213c1.332013 0 1.332013-2 0-2-1.334653 0-1.334653 2 0 2"/><path d="m137.99967 229c1.333773 0 1.333773-2 0-2-1.332893 0-1.332893 2 0 2"/><path d="m144.99934 210c1.334213 0 1.334213-2 0-2-1.332453 0-1.332453 2 0 2"/><path d="m126 193c1.333333 0 1.333333-2 0-2s-1.333333 2 0 2"/><path d="m143.99901 182c1.334653 0 1.334653-2 0-2-1.332013 0-1.332013 2 0 2"/><path d="m166.99868 196c1.335093 0 1.335093-2 0-2-1.331573 0-1.331573 2 0 2"/><path d="m186.99901 201c1.334653 0 1.334653-2 0-2-1.332013 0-1.332013 2 0 2"/><path d="m190.99967 187c1.333773 0 1.333773-2 0-2-1.332893 0-1.332893 2 0 2"/><path d="m216.99901 175c1.334653 0 1.334653-2 0-2-1.332013 0-1.332013 2 0 2"/><path d="m203.99934 156c1.334213 0 1.334213-2 0-2-1.332453 0-1.332453 2 0 2"/><path d="m214.00033 151c1.332893 0 1.332893-2 0-2-1.333773 0-1.333773 2 0 2"/><path d="m90 219c1.3333333 0 1.3333333-2 0-2s-1.3333333 2 0 2"/><path d="m77.0006601 177c1.3324532 0 1.3324532-2 0-2-1.3342135 0-1.3342135 2 0 2"/><path d="m52.0006596 204c1.3324539 0 1.3324539-2 0-2-1.3342128 0-1.3342128 2 0 2"/><path d="m46.0009898 179c1.3320136 0 1.3320136-2 0-2-1.3346531 0-1.3346531 2 0 2"/><path d="m43.9996701 171c1.3337732 0 1.3337732-2 0-2-1.3328935 0-1.3328935 2 0 2"/><path d="m27 163c1.3333333 0 1.3333333-2 0-2s-1.3333333 2 0 2"/><path d="m174.99967 119c1.333773 0 1.333773-2 0-2-1.332893 0-1.332893 2 0 2"/><path d="m166.00066 131c1.332453 0 1.332453-2 0-2-1.334213 0-1.334213 2 0 2"/><path d="m171.00099 153c1.332013 0 1.332013-2 0-2-1.334653 0-1.334653 2 0 2"/><path d="m155.00066 155c1.332453 0 1.332453-2 0-2-1.334213 0-1.334213 2 0 2"/><path d="m86.0006596 117c1.3324539 0 1.3324539-2 0-2-1.3342128 0-1.3342128 2 0 2"/><path d="m77.9993404 91c1.3342128 0 1.3342128-2 0-2-1.3324539 0-1.3324539 2 0 2"/><path d="m95.0006601 79c1.3324532 0 1.3324532-2 0-2-1.3342135 0-1.3342135 2 0 2"/><path d="m109 78c1.333333 0 1.333333-2 0-2s-1.333333 2 0 2"/><path d="m153.99835 48c1.335533 0 1.335533-2 0-2-1.331133 0-1.331133 2 0 2"/><path d="m144.99934 67c1.334213 0 1.334213-2 0-2-1.332453 0-1.332453 2 0 2"/><path d="m137 67.8292638v.3425656c0 1.1042275 2 1.1042275 2 0 0-.1144314 0-.2274052 0-.3425656 0-1.1056851-2-1.1056851-2 0"/><path d="m153.99835 78c1.335533 0 1.335533-2 0-2-1.331133 0-1.331133 2 0 2"/><path d="m165.99967 61c1.333773 0 1.333773-2 0-2-1.332893 0-1.332893 2 0 2"/><path d="m181.99967 79c1.333773 0 1.333773-2 0-2-1.332893 0-1.332893 2 0 2"/><path d="m178.998681 97c1.335092 0 1.335092-2 0-2-1.331575 0-1.331575 2 0 2"/><path d="m183.00033 121c1.332893 0 1.332893-2 0-2-1.333773 0-1.333773 2 0 2"/><path d="m194.00033 132c1.332893 0 1.332893-2 0-2-1.333773 0-1.333773 2 0 2"/><path d="m165 165c1.333333 0 1.333333-2 0-2s-1.333333 2 0 2"/><path d="m161.00066 175c1.332453 0 1.332453-2 0-2-1.334213 0-1.334213 2 0 2"/><path d="m156.00033 183c1.332893 0 1.332893-2 0-2-1.333773 0-1.333773 2 0 2"/><path d="m129.00066 184c1.332453 0 1.332453-2 0-2-1.334213 0-1.334213 2 0 2"/><path d="m121.99967 181c1.333773 0 1.333773-2 0-2-1.332893 0-1.332893 2 0 2"/><path d="m42 114c1.3333333 0 1.3333333-2 0-2s-1.3333333 2 0 2"/><path d="m56 133.828624v.342752c0 1.104832 2 1.104832 2 0 0-.115223 0-.228258 0-.342752 0-1.104832-2-1.104832-2 0"/><path d="m73.0009898 154c1.3320136 0 1.3320136-2 0-2-1.3346531 0-1.3346531 2 0 2"/><path d="m58.0013193 108c1.3315743 0 1.3315743-2 0-2-1.3350924 0-1.3350924 2 0 2"/><path d="m53.9990102 115c1.3346531 0 1.3346531-2 0-2-1.3320136 0-1.3320136 2 0 2"/><path d="m52.0006596 118c1.3324539 0 1.3324539-2 0-2-1.3342128 0-1.3342128 2 0 2"/><path d="m73.9996701 110c1.3337732 0 1.3337732-2 0-2-1.3328935 0-1.3328935 2 0 2"/><path d="m55.0003299 72c1.3328935 0 1.3328935-2 0-2-1.3337732 0-1.3337732 2 0 2"/><path d="m71 64c1.3333333 0 1.3333333-2 0-2s-1.3333333 2 0 2"/><path d="m102.99967 48c1.333773 0 1.333773-2 0-2-1.332893 0-1.332893 2 0 2"/><path d="m26 115c1.3333333 0 1.3333333-2 0-2s-1.3333333 2 0 2"/><path d="m111.99934 65c1.334213 0 1.334213-2 0-2-1.332453 0-1.332453 2 0 2"/><path d="m115.99934 43c1.334213 0 1.334213-2 0-2-1.332453 0-1.332453 2 0 2"/><path d="m211.00099 135c1.332013 0 1.332013-2 0-2-1.334653 0-1.334653 2 0 2"/><path d="m124.99934 204c1.334213 0 1.334213-2 0-2-1.332453 0-1.332453 2 0 2"/><path d="m200.00033 78c1.332893 0 1.332893-2 0-2-1.333773 0-1.333773 2 0 2"/><path d="m190.99967 64c1.333773 0 1.333773-2 0-2-1.332893 0-1.332893 2 0 2"/><path d="m165.99934 27c1.334213 0 1.334213-2 0-2-1.332453 0-1.332453 2 0 2"/><path d="m224.99901 117c1.334653 0 1.334653-2 0-2-1.332013 0-1.332013 2 0 2"/><path d="m122 228c1.333333 0 1.333333-2 0-2s-1.333333 2 0 2"/><path d="m74.9993404 212c1.3342128 0 1.3342128-2 0-2-1.3324539 0-1.3324539 2 0 2"/><path d="m173.00066 222c1.332453 0 1.332453-2 0-2-1.334213 0-1.334213 2 0 2"/><path d="m168.001319 206c1.331575 0 1.331575-2 0-2-1.335092 0-1.335092 2 0 2"/></g></g></svg>