<svg height="470" viewBox="0 0 470 470" width="470" xmlns="http://www.w3.org/2000/svg"><g fill="none"><path d="m261.416 342.596 88.178 88.178 81.178-81.179-88.178-88.178c-2.929-2.929-2.929-7.678 0-10.606.003-.003-10.503-10.509-10.503-10.509l-91.788 91.788 10.506 10.506c2.93-2.928 7.678-2.928 10.607 0zm10.512-21.117c2.93-2.929 7.678-2.929 10.607 0l72.362 72.362c2.929 2.929 2.929 7.678 0 10.606-1.465 1.464-3.385 2.197-5.304 2.197s-3.839-.732-5.304-2.197l-72.362-72.362c-2.928-2.929-2.928-7.678.001-10.606z" fill="#b38c8c"/><path d="m108.659485 58.694037h14.864857v114.801899h-14.864857z" fill="#b38c8c" transform="matrix(-.70710678 -.70710678 .70710678 -.70710678 116.089741 280.275919)"/><path d="m219.186 127.398c-.001.002-70.669 70.669-70.669 70.669-1.465 1.464-3.385 2.197-5.304 2.197-1.92 0-3.839-.732-5.304-2.197-2.929-2.929-2.929-7.678 0-10.606l65.364-65.363-30.73-30.73-81.178 81.178 36.034 36.033c2.929 2.929 2.929 7.678 0 10.606 0 0 10.512 10.513 10.512 10.513l91.788-91.788z" fill="#b38c8c"/><path d="m20.833 76.815c7.618 21.96 21.945 45.348 38.936 63.875l80.919-80.919c-18.526-16.991-41.914-31.317-63.875-38.936-24.345-8.447-43.952-7.649-53.79 2.188-9.839 9.838-10.637 29.445-2.19 53.792z" fill="#b9a9a2"/><path d="m423.354 15.004c-26.958 0-65.496 18.528-94.057 44.753l80.933 80.933c16.991-18.527 31.318-41.915 38.936-63.875 8.447-24.347 7.649-43.954-2.189-53.792-5.321-5.321-13.269-8.019-23.623-8.019z" fill="#b9a9a2"/><path d="m346.478457 58.690937h14.864857v114.801899h-14.864857z" fill="#ad8449" transform="matrix(-.70710678 .70710678 -.70710678 -.70710678 686.253033 -52.071542)"/><path d="m120.406 430.774 215.992-215.992-51.285-51.285c-2.929-2.929-2.929-7.678 0-10.606 2.93-2.929 7.678-2.929 10.607 0l51.284 51.284 31.63-31.63-81.178-81.178-31.63 31.63 8.776 8.776c2.929 2.929 2.929 7.678 0 10.606-1.465 1.464-3.385 2.197-5.304 2.197s-3.839-.732-5.304-2.197l-8.775-8.775-215.992 215.991zm-6.87-134.471 136.376-136.376c2.928-2.929 7.676-2.93 10.607 0 2.929 2.929 2.929 7.678 0 10.606l-136.376 136.376c-1.465 1.464-3.385 2.197-5.304 2.197s-3.839-.732-5.304-2.197c-2.928-2.928-2.928-7.677.001-10.606zm-21.118 21.118c2.931-2.929 7.679-2.929 10.607 0 2.929 2.929 2.929 7.678 0 10.606l-26.869 26.869c-1.465 1.464-3.385 2.197-5.304 2.197-1.92 0-3.839-.732-5.304-2.197-2.929-2.929-2.929-7.678 0-10.606z" fill="#ad8449"/><path d="m118.839 309.106c1.919 0 3.839-.732 5.304-2.197l136.376-136.376c2.929-2.929 2.929-7.678 0-10.606-2.932-2.93-7.68-2.929-10.607 0l-136.376 136.376c-2.929 2.929-2.929 7.678 0 10.606 1.464 1.465 3.384 2.197 5.303 2.197z" fill="#fff"/><path d="m65.549 354.896c1.465 1.465 3.384 2.197 5.304 2.197 1.919 0 3.839-.732 5.304-2.197l26.869-26.869c2.929-2.929 2.929-7.678 0-10.606-2.929-2.929-7.677-2.929-10.607 0l-26.869 26.869c-2.929 2.928-2.929 7.677-.001 10.606z" fill="#fff"/><g fill="#34150c"><path d="m446.682 344.292-93.48-93.481c-2.928-2.928-7.673-2.929-10.604-.003-2.932 2.931-2.932 7.68-.003 10.609l88.178 88.178-81.178 81.179-88.178-88.178c-2.93-2.929-7.677-2.929-10.607 0-2.929 2.929-2.929 7.678 0 10.607l93.481 93.481c1.407 1.407 3.314 2.197 5.304 2.197s3.896-.79 5.304-2.197l91.784-91.785c2.928-2.929 2.928-7.678-.001-10.607z"/><path d="m127.399 208.578-36.034-36.033 81.178-81.178 30.73 30.73-65.363 65.363c-2.929 2.929-2.929 7.678 0 10.606 1.465 1.465 3.384 2.197 5.304 2.197 1.919 0 3.839-.732 5.304-2.197l70.667-70.666c2.929-2.931 2.928-7.678 0-10.606l-62.455-62.455c-20.765-20.764-48.802-38.586-75-47.675-30.428-10.558-55.047-8.515-69.315 5.753-14.267 14.268-16.31 38.884-5.753 69.315 9.089 26.198 26.912 54.235 47.675 74.999l62.455 62.455c1.465 1.464 3.384 2.197 5.304 2.197 1.919 0 3.838-.732 5.303-2.196 2.929-2.931 2.929-7.68 0-10.609zm-46.641-46.64-10.511-10.511 81.178-81.178 10.511 10.511zm-3.945-141.103c21.961 7.619 45.349 21.945 63.876 38.936l-80.919 80.919c-16.991-18.527-31.318-41.915-38.936-63.875-8.447-24.347-7.649-43.954 2.189-53.792 9.838-9.837 29.445-10.635 53.79-2.188z"/><path d="m467.8 365.41c-2.93-2.929-7.678-2.929-10.607 0l-91.784 91.785c-2.929 2.929-2.929 7.678 0 10.606 1.465 1.464 3.385 2.197 5.304 2.197s3.839-.732 5.304-2.197l91.784-91.785c2.928-2.928 2.928-7.677-.001-10.606z"/><path d="m415.663 156.73c20.763-20.763 38.586-48.8 47.675-74.999 10.557-30.431 8.514-55.047-5.754-69.314-8.237-8.237-19.754-12.413-34.23-12.413-32.824 0-78.092 22.343-110.083 54.334l-175.36 175.359-114.594 114.595c-1.406 1.406-2.196 3.314-2.196 5.303s.79 3.897 2.196 5.303l91.785 91.785c1.465 1.464 3.384 2.197 5.304 2.197 1.919 0 3.839-.732 5.304-2.197zm-97.088-86.481 81.178 81.178-10.511 10.511-81.179-81.178zm130.591 6.566c-7.618 21.96-21.945 45.348-38.936 63.875l-80.933-80.933c28.561-26.226 67.099-44.753 94.057-44.753 10.354 0 18.302 2.698 23.623 8.02 9.839 9.837 10.637 29.444 2.189 53.791zm-193.947 56.789 8.775 8.775c1.465 1.464 3.385 2.197 5.304 2.197s3.839-.732 5.304-2.197c2.929-2.929 2.929-7.678 0-10.606l-8.776-8.776 31.63-31.63 81.178 81.178-31.63 31.63-51.284-51.284c-2.93-2.929-7.678-2.929-10.607 0s-2.929 7.678 0 10.606l51.285 51.285-215.992 215.992-81.179-81.179z"/><path d="m12.806 365.41c-2.93-2.929-7.678-2.929-10.607 0s-2.929 7.678 0 10.606l91.785 91.785c1.465 1.464 3.385 2.197 5.304 2.197s3.839-.732 5.304-2.197c2.929-2.929 2.929-7.678 0-10.606z"/></g><path d="m344.29 404.447c1.465 1.464 3.385 2.197 5.304 2.197s3.839-.732 5.304-2.197c2.929-2.929 2.929-7.678 0-10.606l-72.362-72.362c-2.93-2.929-7.678-2.929-10.607 0s-2.929 7.678 0 10.606z" fill="#fff"/></g></svg>