<svg height="112" viewBox="0 0 112 112" width="112" xmlns="http://www.w3.org/2000/svg" xmlns:xlink="http://www.w3.org/1999/xlink"><radialGradient id="a" cx="50%" cy="50%" r="54.525862%"><stop offset="0" stop-color="#ffdc60"/><stop offset="1" stop-color="#ffe060"/></radialGradient><g fill="none" fill-rule="evenodd" transform=""><circle cx="56" cy="56" fill="url(#a)" r="56"/><g transform="translate(16 58)"><path d="m1.1136689 0h77.7726622c-1.5318746 20.1373431-18.3566418 36-38.8863311 36s-37.3544565-15.8626569-38.8863311-36z" fill="#272232"/><path d="m5.03250621 14.0081326c10.67537499-3.8875122 22.19977609-6.0081326 34.21947459-6.0081326 12.5832909 0 24.6237472 2.3241505 35.715513 6.5665954-6.4256665 12.7150468-19.6092834 21.4334046-34.8291819 21.4334046-15.4417146 0-28.7873613-8.9743339-35.10580569-21.9918674z" fill="#fd4e60"/></g><g stroke="#271900" stroke-linecap="round" stroke-linejoin="round" stroke-width="5"><path d="m76 30 14 7-14 7" transform="matrix(-1 0 0 1 166 0)"/><path d="m22 30 14 7-14 7"/></g></g></svg>