<svg height="100" viewBox="0 0 100 100" width="100" xmlns="http://www.w3.org/2000/svg" xmlns:xlink="http://www.w3.org/1999/xlink"><mask id="a" fill="#fff"><path d="m.06 0h799.94v800h-799.94z" fill="none"/></mask><g fill="none" fill-rule="evenodd" transform="translate(-31 -505)"><path d="m.06 800h799.94v-800h-799.94z" fill="#fffffe" mask="url(#a)"/><path d="m123.789 554.374c0 23.903-19.375 43.277-43.278 43.277s-43.278-19.374-43.278-43.277c0-23.902 19.375-43.277 43.278-43.277s43.278 19.375 43.278 43.277" fill="#f8ca23" fill-opacity=".3"/><g fill-opacity=".7"><path d="m88.07 536.481c-2.765.921-6.187 1.072-7.554 1.097-1.364-.025-4.803-.176-7.564-1.097-5.264-1.753-13.73-2.861-20.185-2.709-4.779.118-9.728.76-12.811 1.379-1.368.277-2.237 1.62-1.922 2.978l.329 1.414c.193.824.829 1.432 1.627 1.715.41.147.806.415.985.897.553 1.488 3.548 10.324 5.171 13.589 1.328 2.673 4.928 4.965 13.295 4.997 11.907.048 16.032-7.826 17.925-12.913.198-.531.5-1.549.77-2.536.389-1.413 1.246-2.804 1.631-3.004.225-.114.493-.211.749-.211.266 0 .53.097.759.211.38.2 1.219 1.591 1.614 3.004.27.987.566 2.005.765 2.536 1.892 5.087 6.017 12.961 17.924 12.913 8.367-.032 11.97-2.324 13.296-4.997 1.621-3.265 4.613-12.101 5.174-13.589.178-.482.572-.75.985-.897.797-.283 1.433-.891 1.626-1.715l.33-1.415c.314-1.358-.557-2.7-1.925-2.977-3.081-.619-8.031-1.261-12.809-1.379-6.461-.152-14.923.956-20.185 2.709" fill="#1e1b14"/><path d="m86.097 544.372c.25 5.767 5.867 11.312 11.123 12.584 7.728 1.872 13.54.205 16.836-6.898.993-2.144 3.117-6.812 2.981-9.303-.238-4.326-5.731-3.567-9.237-3.654-.376-.008-22.047-.618-21.703 7.271" fill="#3e3826"/><path d="m75.142 544.372c-.25 5.767-5.866 11.312-11.124 12.584-7.728 1.872-13.54.205-16.835-6.898-.992-2.144-3.118-6.812-2.981-9.303.237-4.326 5.731-3.567 9.237-3.654.375-.008 22.046-.618 21.703 7.271" fill="#3e3826"/></g><path d="m89.742 576.514c-1.147 0-2.319-.085-3.508-.263-1.155-.175-1.952-1.253-1.778-2.409.174-1.154 1.243-1.949 2.407-1.779 6.696 1.001 12.649-1.528 15.158-6.456.532-1.041 1.807-1.454 2.848-.923 1.042.53 1.455 1.805.925 2.846-2.885 5.661-8.974 8.984-16.052 8.984" fill="#45281c" fill-opacity=".5"/></g></svg>