<svg id='change_missle_deg' height="36" viewBox="0 0 36 36" width="36" xmlns="http://www.w3.org/2000/svg"><g fill="#d80027" transform="matrix(.70710678 -.70710678 .70710678 .70710678 -.384776 18)"><path d="m25.744 6.604c.336-.337.363-.584-.264-.584-.628 0-4.556 0-5.068 0s-.533.016-.814.297-4.604 4.607-4.604 4.607h5.877c.465 0 .633-.037.912-.318.28-.28 3.625-3.666 3.961-4.002z"/><path d="m19.375.235c.336-.335.584-.363.584.264v5.067c0 .512-.016.534-.297.815s-4.607 4.604-4.607 4.604 0-5.414 0-5.878.037-.632.318-.912c.28-.279 3.666-3.624 4.002-3.96z"/><path d="m1.621 16.53c-2.161 2.162-2.162 5.666-.001 7.828 2.161 2.161 5.667 2.161 7.828 0 .93-.931 6.001-6 6.931-6.93 2.161-2.161 2.161-5.666 0-7.829-2.162-2.162-5.666-2.161-7.828 0-.93.932-6 6.001-6.93 6.931z"/></g></svg>