<svg height="112" viewBox="0 0 112 112" width="112" xmlns="http://www.w3.org/2000/svg" xmlns:xlink="http://www.w3.org/1999/xlink"><radialGradient id="a" cx="50%" cy="50%" r="54.525862%"><stop offset="0" stop-color="#ffdc60"/><stop offset="1" stop-color="#ffe060"/></radialGradient><g fill="none" fill-rule="evenodd" transform=""><circle cx="56" cy="56" fill="url(#a)" r="56"/><circle cx="32" cy="60" fill="#272232" r="8"/><circle cx="82" cy="60" fill="#272232" r="8"/><g stroke-linejoin="round" stroke-width="5"><path d="m70.2226057 87.2000824c-3.8327577-3.2440238-8.7904708-5.2000824-14.2050459-5.2000824-5.3267045 0-10.2112551 1.8930859-14.0175598 5.0431656" stroke="#2b1509" stroke-linecap="round"/><path d="m35.3930654 44.6997561c-1.2645394-.4529932-2.6272459-.6997561-4.0475871-.6997561-5.2550934 0-9.7212202 3.3779671-11.3454783 8.0809989" stroke="#281300"/><path d="m93.3930654 44.6997561c-1.2645394-.4529932-2.6272459-.6997561-4.0475871-.6997561-5.2550934 0-9.7212202 3.3779671-11.3454783 8.0809989" stroke="#281300" transform="matrix(-1 0 0 1 171.393066 0)"/></g><path d="m90 112c4.418278 0 8-3.581722 8-8s-8-20-8-20-8 15.581722-8 20 3.581722 8 8 8z" fill="#5e8ee7"/></g></svg>